<?xml version="1.0" encoding="UTF-8"?>
<svg width="9px" height="17px" viewBox="0 0 9 17" version="1.1" xmlns="http://www.w3.org/2000/svg" xmlns:xlink="http://www.w3.org/1999/xlink">
    <!-- Generator: Sketch 51.1 (57501) - http://www.bohemiancoding.com/sketch -->
    <title>facebook-logo</title>
    <desc>Created with Sketch.</desc>
    <defs></defs>
    <g id="Page-1" stroke="none" stroke-width="1" fill="none" fill-rule="evenodd">
        <g id="Desktop-HD" transform="translate(-1289.000000, -19.000000)" fill="#D3F0E2" fill-rule="nonzero">
            <g id="Group-2" transform="translate(1289.000000, 19.000000)">
                <g id="facebook-logo">
                    <path d="M8.55415942,0.00339071737 L6.42211917,0 C4.02684506,0 2.47891371,1.57414054 2.47891371,4.01054051 L2.47891371,5.85966823 L0.335242591,5.85966823 C0.150003955,5.85966823 0,6.00852072 0,6.19212806 L0,8.8713034 C0,9.05491074 0.150174997,9.2035937 0.335242591,9.2035937 L2.47891371,9.2035937 L2.47891371,15.964006 C2.47891371,16.1476133 2.62891767,16.2962963 2.8141563,16.2962963 L5.61103735,16.2962963 C5.79627599,16.2962963 5.94627994,16.1474438 5.94627994,15.964006 L5.94627994,9.2035937 L8.45273144,9.2035937 C8.63797007,9.2035937 8.78797403,9.05491074 8.78797403,8.8713034 L8.78900028,6.19212806 C8.78900028,6.10396941 8.75359456,6.01954055 8.69082209,5.95715135 C8.62804963,5.89476215 8.54252856,5.85966823 8.45358665,5.85966823 L5.94627994,5.85966823 L5.94627994,4.29213959 C5.94627994,3.53872219 6.12741356,3.15624927 7.1175765,3.15624927 L8.55381734,3.15574066 C8.73888493,3.15574066 8.88888889,3.00688817 8.88888889,2.82345036 L8.88888889,0.33568102 C8.88888889,0.152412746 8.73905598,0.00372978911 8.55415942,0.00339071737 Z" id="Shape"></path>
                </g>
            </g>
        </g>
    </g>
</svg>