<?xml version="1.0" encoding="UTF-8"?>
<svg width="14px" height="14px" viewBox="0 0 14 14" version="1.1" xmlns="http://www.w3.org/2000/svg" xmlns:xlink="http://www.w3.org/1999/xlink">
    <!-- Generator: Sketch 51.1 (57501) - http://www.bohemiancoding.com/sketch -->
    <title>linkedin-logo</title>
    <desc>Created with Sketch.</desc>
    <defs></defs>
    <g id="Page-1" stroke="none" stroke-width="1" fill="none" fill-rule="evenodd">
        <g id="Desktop-HD" transform="translate(-1318.000000, -21.000000)" fill="#D3F0E2" fill-rule="nonzero">
            <g id="Group-2" transform="translate(1289.000000, 19.000000)">
                <g id="linkedin-logo" transform="translate(29.000000, 2.000000)">
                    <path d="M13.6612346,8.05355007 L13.6612346,13.1358025 L10.7331897,13.1358025 L10.7331897,8.39392869 C10.7331897,7.20273134 10.3096795,6.38978573 9.24982435,6.38978573 C8.44075931,6.38978573 7.95928414,6.9376515 7.74746555,7.46761942 C7.67022117,7.65708088 7.65033837,7.92078642 7.65033837,8.18599411 L7.65033837,13.1358025 L4.72130884,13.1358025 C4.72130884,13.1358025 4.76075684,5.1046247 4.72130884,4.27253479 L7.65005251,4.27253479 L7.65005251,5.52886751 C7.64411308,5.53826388 7.63639499,5.54839534 7.63080494,5.55750406 L7.65005251,5.55750406 L7.65005251,5.52886751 C8.03916474,4.92580607 8.73407834,4.06431256 10.2895109,4.06431256 C12.2165867,4.0642806 13.6612346,5.33109634 13.6612346,8.05355007 Z M1.65741927,0 C0.655402077,0 0,0.66135727 0,1.53106461 C0,2.38181942 0.63644036,3.06324784 1.61854298,3.06324784 L1.63810817,3.06324784 C2.65953174,3.06324784 3.29476516,2.38194726 3.29476516,1.53106461 C3.27551759,0.66135727 2.65953174,0 1.65741927,0 Z M0.173958671,13.1358025 L3.10187653,13.1358025 L3.10187653,4.27253479 L0.173958671,4.27253479 L0.173958671,13.1358025 Z" id="LinkedIn"></path>
                </g>
            </g>
        </g>
    </g>
</svg>