<?xml version="1.0" encoding="UTF-8"?>
<svg width="10px" height="21px" viewBox="0 0 10 21" version="1.1" xmlns="http://www.w3.org/2000/svg" xmlns:xlink="http://www.w3.org/1999/xlink">
    <!-- Generator: Sketch 51.1 (57501) - http://www.bohemiancoding.com/sketch -->
    <title>phone</title>
    <desc>Created with Sketch.</desc>
    <defs></defs>
    <g id="Page-1" stroke="none" stroke-width="1" fill="none" fill-rule="evenodd">
        <g id="Desktop-HD" transform="translate(-111.000000, -17.000000)" fill="#A5E0C2" fill-rule="nonzero">
            <g id="Phone-number" transform="translate(106.000000, 16.000000)">
                <g id="phone" transform="translate(11.500000, 11.500000) rotate(128.000000) translate(-11.500000, -11.500000) translate(4.000000, 4.000000)">
                    <path d="M15.2127512,0.758930483 L12.0061501,0.019038105 C11.6573089,-0.061466083 11.3007287,0.119306056 11.1596074,0.448568493 L9.67963764,3.90173875 C9.54976754,4.20477527 9.63604172,4.55717674 9.89121165,4.76594859 L11.7601976,6.29512733 C10.6510528,8.65922485 8.70967164,10.6273688 6.29513182,11.7601623 L4.76595307,9.89120717 C4.55718123,9.63603723 4.20477976,9.54976305 3.90174324,9.67963316 L0.44857298,11.1596029 C0.119403041,11.3006625 -0.061492428,11.6572119 0.0190425927,12.0061456 L0.75893497,15.2127467 C0.835831732,15.5459558 1.13302816,15.7863275 1.47995773,15.7863275 C9.37581219,15.7863275 15.786332,9.38755496 15.786332,1.47995325 C15.786332,1.13536696 15.5484885,0.836382233 15.2127512,0.758930483 Z" id="Shape"></path>
                </g>
            </g>
        </g>
    </g>
</svg>