<?xml version="1.0" encoding="UTF-8"?>
<svg width="25px" height="16px" viewBox="0 0 25 16" version="1.1" xmlns="http://www.w3.org/2000/svg" xmlns:xlink="http://www.w3.org/1999/xlink">
    <!-- Generator: Sketch 51.1 (57501) - http://www.bohemiancoding.com/sketch -->
    <title>united-kingdom</title>
    <desc>Created with Sketch.</desc>
    <defs></defs>
    <g id="Page-1" stroke="none" stroke-width="1" fill="none" fill-rule="evenodd">
        <g id="Desktop-HD" transform="translate(-1081.000000, -20.000000)" fill-rule="nonzero">
            <g id="Contry-language" transform="translate(1081.000000, 18.000000)">
                <g id="united-kingdom" transform="translate(0.000000, 2.000000)">
                    <path d="M24.5688973,16 L0.431053846,16 C0.193017201,16 0,15.8114527 0,15.5789285 L0,0.421071459 C0,0.18854729 0.193017201,0 0.431053846,0 L24.5689462,0 C24.8069828,0 25,0.18854729 25,0.421071459 L25,15.5789285 C24.9999512,15.8114527 24.806934,16 24.5688973,16 Z" id="Shape" fill="#41479B"></path>
                    <path d="M24.9999023,0.421071459 C24.9999023,0.18854729 24.8068855,0 24.5688493,0 L22.6403901,0 L14.6550697,5.1106189 L14.6550697,0 L10.344735,0 L10.344735,5.1106189 L2.35946344,0 L0.431053004,0 C0.193016824,0 0,0.18854729 0,0.421071459 L0,1.51004773 L6.85099863,5.89471425 L0,5.89471425 L0,10.1052381 L6.85099863,10.1052381 L0,14.4899523 L0,15.5789285 C0,15.8114527 0.193016824,16 0.431053004,16 L2.35951227,16 L10.3448326,10.8893811 L10.3448326,16 L14.6551674,16 L14.6551674,10.8893811 L22.6404877,16 L24.568947,16 C24.8069832,16 25,15.8114527 25,15.5789285 L25,14.4899523 L18.1490014,10.1052858 L24.9999023,10.1052858 L24.9999023,5.89476195 L18.1489037,5.89476195 L24.9999023,1.51004773 L24.9999023,0.421071459 Z" id="Shape" fill="#F5F5F5"></path>
                    <g id="Group" fill="#FF4B55">
                        <polygon id="Shape" points="24.9512671 6.73895238 13.7662281 6.73895238 13.7662281 0.0131428571 11.185039 0.0131428571 11.185039 6.73895238 0 6.73895238 0 9.26109524 11.185039 9.26109524 11.185039 15.9869048 13.7662281 15.9869048 13.7662281 9.26109524 24.9512671 9.26109524"></polygon>
                        <path d="M8.72066277,10.1018095 L0.0121832359,15.6254762 C0.0426413255,15.8284762 0.213937622,15.9869048 0.430165692,15.9869048 L1.02270955,15.9869048 L10.3009747,10.1018095 L8.72066277,10.1018571 L8.72066277,10.1018095 Z" id="Shape"></path>
                        <path d="M16.8805068,10.1018095 L15.3001949,10.1018095 L24.564961,15.9781905 C24.7808967,15.9557143 24.9513158,15.7834286 24.9513158,15.5664762 L24.9513158,15.2208571 L16.8805068,10.1018095 Z" id="Shape"></path>
                        <path d="M0,0.897571429 L7.88396686,5.8982381 L9.46427875,5.8982381 L0.250633528,0.0541428571 C0.103460039,0.120952381 0,0.26452381 0,0.43352381 L0,0.897571429 Z" id="Shape"></path>
                        <path d="M16.2069201,5.8982381 L24.936306,0.361238095 C24.9000487,0.164952381 24.7324074,0.0131904762 24.5210526,0.0131904762 L23.9047271,0.0131904762 L14.6266082,5.8982381 L16.2069201,5.8982381 Z" id="Shape"></path>
                    </g>
                </g>
            </g>
        </g>
    </g>
</svg>